<svg width="31" height="30" viewBox="0 0 31 30" fill="none" xmlns="http://www.w3.org/2000/svg">
<g clip-path="url(#clip0)">
<path d="M21.7696 21.1735C21.4474 21.1389 21.1592 21.3722 21.1249 21.6939L20.3637 28.8281H9.85852L9.10764 21.7898C9.0733 21.468 8.78473 21.2347 8.46287 21.2694C8.14108 21.3037 7.90811 21.5924 7.94244 21.9141L8.74922 29.4762C8.78098 29.7741 9.03229 30 9.33182 30H20.8905C21.19 30 21.4413 29.7741 21.4731 29.4762L22.2901 21.8183C22.3244 21.4965 22.0914 21.2078 21.7696 21.1735Z" fill="#D8D8D8"/>
<path d="M24.4856 4.17715H23.1746L22.1424 1.63951C22.0526 1.41873 21.838 1.27436 21.5997 1.27436H18.0047L16.9979 0.187734C16.887 0.0680273 16.7313 0 16.5681 0H13.6541C13.4909 0 13.3352 0.0680273 13.2243 0.187734L12.2176 1.27436H8.62261C8.38425 1.27436 8.16968 1.41873 8.07985 1.63951L7.04761 4.17715H5.73657C5.41296 4.17715 5.15063 4.43947 5.15063 4.76309V7.28104C5.15063 7.60465 5.41296 7.86697 5.73657 7.86697H6.44368L7.17927 14.7616C7.2136 15.0834 7.50218 15.3166 7.82403 15.2821C8.14583 15.2477 8.3788 14.959 8.34446 14.6373L7.62212 7.86697H22.6L21.8752 14.6598C21.8409 14.9816 22.0739 15.2702 22.3957 15.3046C22.4168 15.3069 22.4378 15.308 22.4585 15.308C22.7542 15.308 23.0084 15.0848 23.0404 14.7841L23.7784 7.86697H24.4855C24.8091 7.86697 25.0715 7.60465 25.0715 7.28104V4.76309C25.0716 4.43947 24.8092 4.17715 24.4856 4.17715ZM9.01677 2.44623H12.4734C12.6366 2.44623 12.7924 2.3782 12.9032 2.2585L13.91 1.17188H16.3122L17.319 2.2585C17.4299 2.37814 17.5856 2.44623 17.7488 2.44623H21.2054L21.9095 4.17715H8.3127L9.01677 2.44623ZM23.8997 6.6951H6.32251V5.34902H23.8997V6.6951Z" fill="#D8D8D8"/>
<path d="M6.14124 12.8271L7.30959 23.7779H22.9126L24.081 12.8271H6.14124ZM15.1111 20.5038C13.9203 20.5038 12.9549 19.5384 12.9549 18.3475C12.9549 17.1567 13.9203 16.1913 15.1111 16.1913C16.302 16.1913 17.2674 17.1567 17.2674 18.3475C17.2674 19.5384 16.302 20.5038 15.1111 20.5038Z" fill="#D8D8D8"/>
<path d="M15.1111 21.0897C13.599 21.0897 12.3689 19.8596 12.3689 18.3475C12.3689 16.8354 13.599 15.6053 15.1111 15.6053C16.6232 15.6053 17.8533 16.8354 17.8533 18.3475C17.8533 19.8596 16.6232 21.0897 15.1111 21.0897ZM15.1111 16.7773C14.2452 16.7773 13.5408 17.4817 13.5408 18.3476C13.5408 19.2135 14.2452 19.9179 15.1111 19.9179C15.977 19.9179 16.6814 19.2135 16.6814 18.3476C16.6814 17.4817 15.9769 16.7773 15.1111 16.7773Z" fill="#D8D8D8"/>
</g>
<defs>
<clipPath id="clip0">
<rect width="30" height="30" fill="white" transform="translate(0.111084)"/>
</clipPath>
</defs>
</svg>
