<svg width="16" height="19" viewBox="0 0 16 19" fill="none" xmlns="http://www.w3.org/2000/svg">
<path fill-rule="evenodd" clip-rule="evenodd" d="M11.7169 7.43413C11.3416 7.43413 11.0369 7.12949 11.0369 6.75413V4.80754C11.0369 2.90719 9.4911 1.36134 7.59074 1.36134H7.57624C6.6578 1.36134 5.79738 1.71494 5.14731 2.35957C4.4927 3.00692 4.13094 3.87097 4.12732 4.79213V6.75413C4.12732 7.12949 3.82268 7.43413 3.44733 7.43413C3.07197 7.43413 2.76733 7.12949 2.76733 6.75413V4.80754C2.77277 3.50196 3.27778 2.29701 4.18897 1.39398C5.10107 0.490045 6.30511 -0.0330952 7.59346 0.00135771C10.2409 0.00135771 12.3969 2.15739 12.3969 4.80754V6.75413C12.3969 7.12949 12.0923 7.43413 11.7169 7.43413Z" fill="#001833"/>
<path fill-rule="evenodd" clip-rule="evenodd" d="M4.11811 7.36986C2.59674 7.36986 1.36006 8.60654 1.36006 10.1279V14.0166C1.36006 15.5379 2.59674 16.7746 4.11811 16.7746H11.0459C12.5663 16.7746 13.8039 15.5379 13.8039 14.0166V10.1279C13.8039 8.60654 12.5663 7.36986 11.0459 7.36986H4.11811ZM11.0458 18.1344H4.11803C1.84686 18.1344 0 16.2875 0 14.0163V10.1277C0 7.85652 1.84686 6.00966 4.11803 6.00966H11.0458C13.317 6.00966 15.1638 7.85652 15.1638 10.1277V14.0163C15.1638 16.2875 13.317 18.1344 11.0458 18.1344Z" fill="#001833"/>
<path fill-rule="evenodd" clip-rule="evenodd" d="M7.58124 13.7588C7.20588 13.7588 6.90125 13.4541 6.90125 13.0788V11.0651C6.90125 10.6897 7.20588 10.3851 7.58124 10.3851C7.95659 10.3851 8.26123 10.6897 8.26123 11.0651V13.0788C8.26123 13.4541 7.95659 13.7588 7.58124 13.7588Z" fill="#001833"/>
</svg>
