<svg width="18" height="15" viewBox="0 0 18 15" fill="none" xmlns="http://www.w3.org/2000/svg">
<path fill-rule="evenodd" clip-rule="evenodd" d="M8.99922 5.07663C7.80222 5.07663 6.82931 6.05044 6.82931 7.24745C6.82931 8.44356 7.80222 9.41647 8.99922 9.41647C10.1962 9.41647 11.17 8.44356 11.17 7.24745C11.17 6.05044 10.1962 5.07663 8.99922 5.07663ZM8.9993 10.7666C7.05798 10.7666 5.47937 9.18795 5.47937 7.24754C5.47937 5.30623 7.05798 3.72672 8.9993 3.72672C10.9406 3.72672 12.5201 5.30623 12.5201 7.24754C12.5201 9.18795 10.9406 10.7666 8.9993 10.7666Z" fill="#001833"/>
<mask id="mask0" style="mask-type:alpha" maskUnits="userSpaceOnUse" x="0" y="-1" width="18" height="16">
<path fill-rule="evenodd" clip-rule="evenodd" d="M0 -0.000244141H18V14.4944H0V-0.000244141Z" fill="white"/>
</mask>
<g mask="url(#mask0)">
<path fill-rule="evenodd" clip-rule="evenodd" d="M1.41274 7.24675C3.08675 10.9449 5.90647 13.1436 8.99979 13.1445C12.0931 13.1436 14.9128 10.9449 16.5869 7.24675C14.9128 3.54952 12.0931 1.3508 8.99979 1.3499C5.90737 1.3508 3.08675 3.54952 1.41274 7.24675ZM9.00164 14.4947H8.99804H8.99714C5.27471 14.492 1.93209 11.8829 0.0546754 7.51334C-0.0182251 7.34324 -0.0182251 7.15063 0.0546754 6.98053C1.93209 2.6119 5.27561 0.00277993 8.99714 7.99123e-05C8.99894 -0.000820094 8.99894 -0.000820094 8.99984 7.99123e-05C9.00164 -0.000820094 9.00164 -0.000820094 9.00254 7.99123e-05C12.725 0.00277993 16.0676 2.6119 17.945 6.98053C18.0188 7.15063 18.0188 7.34324 17.945 7.51334C16.0685 11.8829 12.725 14.492 9.00254 14.4947H9.00164Z" fill="#001833"/>
</g>
</svg>
