<svg width="18" height="18" viewBox="0 0 18 18" fill="none" xmlns="http://www.w3.org/2000/svg">
<path d="M7.55358 2H10.338C10.7227 2 11.0341 2.2013 11.0341 2.45C11.0341 2.6987 10.7227 2.9 10.338 2.9H7.55358C7.16888 2.9 6.85749 2.6987 6.85749 2.45C6.85749 2.2013 7.16888 2 7.55358 2Z" fill="#172B4D"/>
<path d="M5.40051 0H12.6005C13.5929 0 14.4005 0.807609 14.4005 1.8V16.2C14.4005 17.1924 13.5929 18 12.6005 18H5.40051C4.40812 18 3.60051 17.1924 3.60051 16.2V1.8C3.60051 0.807609 4.40812 0 5.40051 0ZM4.50051 16.2C4.50051 16.6971 4.9034 17.1 5.40051 17.1H12.6005C13.0976 17.1 13.5005 16.6971 13.5005 16.2V1.8C13.5005 1.30289 13.0976 0.9 12.6005 0.9H5.40051C4.9034 0.9 4.50051 1.30289 4.50051 1.8V16.2Z" fill="#172B4D"/>
<path d="M9.00063 15.4997C8.50358 15.4997 8.10063 15.0968 8.10063 14.5997C8.10063 14.1027 8.50358 13.6997 9.00063 13.6997C9.49769 13.6997 9.90063 14.1027 9.90063 14.5997C9.90063 15.0968 9.49769 15.4997 9.00063 15.4997Z" fill="#172B4D"/>
</svg>
